<?xml version="1.0" encoding="utf-8"?>
<!-- Generator: Adobe Illustrator 17.0.0, SVG Export Plug-In . SVG Version: 6.00 Build 0)  -->
<!DOCTYPE svg PUBLIC "-//W3C//DTD SVG 1.1//EN" "http://www.w3.org/Graphics/SVG/1.1/DTD/svg11.dtd">
<svg version="1.1" id="Layer_1" xmlns="http://www.w3.org/2000/svg" xmlns:xlink="http://www.w3.org/1999/xlink" x="0px" y="0px"
	 width="60px" height="60px" viewBox="0 0 60 60" enable-background="new 0 0 60 60" xml:space="preserve">
<g>
	<path fill="none" d="M23.57,33.052c-0.097-1.424-0.38-2.693-0.802-3.842c-0.256,0.563-0.516,1.125-0.773,1.687
		c0.152,0.617,0.256,1.273,0.317,1.966C22.726,32.931,23.145,32.994,23.57,33.052z"/>
	<path fill="none" d="M29.372,33.509c0.434,0.01,0.871,0.017,1.312,0.017s0.877-0.007,1.312-0.017h-1.311h-0.001h0.001v-7.608
		c-0.415-0.273-0.824-0.305-1.243-0.078v7.685H29.372z"/>
	<path fill="none" d="M29.44,40.295v4.227c0.412,0.009,0.826,0.015,1.243,0.015v-4.229C30.266,40.307,29.852,40.303,29.44,40.295z"
		/>
	<path fill="none" d="M37.698,39.9c0.628,1.412,1.458,2.649,2.384,3.792c0.468-0.088,0.93-0.181,1.38-0.282
		c-0.966-1.131-1.83-2.321-2.481-3.679C38.559,39.792,38.131,39.848,37.698,39.9z"/>
	<path fill="none" d="M21.596,38.65c0.408,0.074,0.821,0.145,1.242,0.209c0.427-1.223,0.706-2.573,0.765-4.106h5.837h0.001H29.44
		v4.669c0.412,0.009,0.826,0.015,1.243,0.015v-4.684h5.838c0.062,1.603,0.363,3.006,0.824,4.272
		c0.424-0.054,0.841-0.113,1.254-0.177c-0.468-1.208-0.771-2.55-0.835-4.095h2.016c-0.151-0.328-0.301-0.656-0.452-0.984
		c-2.682,0.405-5.595,0.629-8.645,0.629c-3.536,0-6.889-0.301-9.909-0.836c-0.183,0.397-0.364,0.794-0.546,1.191h2.132
		C22.299,36.215,22.022,37.492,21.596,38.65z"/>
	<path fill="none" d="M37.798,33.052c0.052-0.698,0.15-1.356,0.293-1.977c-0.263-0.572-0.527-1.144-0.789-1.717
		c-0.407,1.153-0.677,2.423-0.76,3.85C36.967,33.161,37.385,33.109,37.798,33.052z"/>
	<path fill="none" d="M21.226,39.551c-0.614,1.333-1.434,2.504-2.357,3.612c0.438,0.111,0.888,0.215,1.345,0.313
		c0.889-1.124,1.681-2.342,2.278-3.729C22.064,39.686,21.643,39.62,21.226,39.551z"/>
	
		<line fill="none" stroke="#373636" stroke-width="0" stroke-linecap="round" stroke-linejoin="round" x1="29.441" y1="34.752" x2="29.44" y2="34.752"/>
	<path fill="#373636" d="M23.603,34.752c-0.059,1.533-0.338,2.883-0.765,4.106c2.075,0.317,4.292,0.511,6.602,0.563v-4.669H23.603z"
		/>
	<path fill="#373636" d="M22.492,39.747c-0.597,1.387-1.389,2.605-2.278,3.729c2.785,0.601,5.909,0.972,9.226,1.046v-4.227
		C27.011,40.246,24.677,40.057,22.492,39.747z"/>
	<path fill="#373636" d="M17.385,46.638c-1.698,1.782-3.31,3.49-4.362,5.584c4.309,4.06,10.066,6.595,16.417,6.752V45.395
		c-3.574-0.071-6.939-0.449-9.93-1.065C18.824,45.127,18.102,45.886,17.385,46.638z"/>
	<path fill="#373636" d="M30.683,34.752v4.684c0,0,0,0,0,0c2.319,0,4.556-0.145,6.662-0.412c-0.461-1.266-0.762-2.669-0.824-4.272
		H30.683z"/>
	<path fill="#373636" d="M30.684,40.307C30.684,40.307,30.684,40.307,30.684,40.307l0,4.229c0,0,0,0,0,0
		c3.354,0,6.535-0.304,9.398-0.844c-0.925-1.143-1.755-2.38-2.384-3.792C35.479,40.164,33.125,40.307,30.684,40.307z"/>
	<path fill="#373636" d="M30.683,45.408v13.567c6.351-0.156,12.108-2.691,16.418-6.752c-1.051-2.095-2.663-3.802-4.362-5.584
		c-0.655-0.687-1.312-1.381-1.944-2.103C37.722,45.094,34.298,45.408,30.683,45.408C30.684,45.408,30.684,45.408,30.683,45.408z"/>
	<path fill="#373636" d="M29.372,33.509h0.069v-7.685c-0.183,0.099-0.367,0.244-0.555,0.439c-0.366,0.379-0.783,0.586-1.291,0.68
		c-1.158,0.216-2.309,0.461-3.465,0.687c-0.431,0.084-0.758,0.261-0.955,0.694c-0.134,0.296-0.272,0.59-0.406,0.886
		c0.421,1.15,0.704,2.418,0.802,3.842C25.411,33.304,27.355,33.462,29.372,33.509z"/>
	<path fill="#373636" d="M21.996,30.897c-0.27,0.589-0.539,1.178-0.81,1.766c0.37,0.071,0.746,0.137,1.127,0.2
		C22.252,32.17,22.147,31.514,21.996,30.897z"/>
	
		<line fill="none" stroke="#373636" stroke-width="0" stroke-linecap="round" stroke-linejoin="round" x1="30.684" y1="33.509" x2="30.683" y2="33.509"/>
	<path fill="#373636" d="M32.897,22.725c-0.221,0.191-0.171,0.509-0.033,1.263c0.008,0.042,0.023,0.076,0.033,0.115V22.725z"/>
	<path fill="#373636" d="M31.995,33.509c1.564-0.037,3.085-0.14,4.548-0.301c0.083-1.427,0.352-2.697,0.76-3.85
		c-0.159-0.347-0.32-0.693-0.478-1.041c-0.196-0.431-0.529-0.606-0.96-0.69c-1.156-0.225-2.307-0.471-3.464-0.687
		c-0.508-0.095-0.926-0.302-1.289-0.682c-0.144-0.151-0.285-0.263-0.427-0.356v7.608H31.995z"/>
	<path fill="#373636" d="M38.922,32.885c-0.278-0.603-0.554-1.206-0.831-1.809c-0.143,0.621-0.242,1.279-0.293,1.977
		C38.178,33,38.552,32.944,38.922,32.885z"/>
	<path fill="#373636" d="M21.226,39.551c-0.977-0.164-1.92-0.352-2.825-0.563l-1.512,3.61c0.635,0.202,1.294,0.391,1.98,0.565
		C19.792,42.054,20.612,40.884,21.226,39.551z"/>
	<path fill="#373636" d="M15.799,45.201c-1.552-0.305-3.1-0.629-4.643-0.971c0.001,0.001,0.002,0.002,0.003,0.003
		c-0.107-0.024-0.215-0.047-0.323-0.07c-0.058-0.013-0.116-0.023-0.174-0.036c-0.345-0.078-0.679-0.182-1.009-0.297
		c-0.071-0.025-0.141-0.051-0.212-0.077c-0.296-0.11-0.588-0.23-0.874-0.363c-0.024-0.011-0.048-0.021-0.071-0.032
		c-0.334-0.157-0.662-0.326-0.987-0.505c-0.005-0.003-0.01-0.006-0.015-0.008c-0.299-0.164-0.595-0.334-0.889-0.509
		c1.182,3.38,3.068,6.429,5.491,8.964c1.143-2.109,2.787-3.838,4.39-5.52c0.559-0.586,1.111-1.167,1.641-1.758
		c-0.567-0.136-1.118-0.281-1.652-0.435L15.799,45.201z"/>
	<path fill="#373636" d="M22.36,34.752h-2.132c-0.159,0.346-0.317,0.693-0.476,1.039c-0.115,0.252-0.221,0.508-0.342,0.788
		l-0.613,1.464c0.893,0.228,1.829,0.431,2.799,0.607C22.022,37.492,22.299,36.215,22.36,34.752z"/>
	<path fill="#373636" d="M41.462,43.41c0.593-0.133,1.168-0.278,1.728-0.431l-1.52-3.712c-0.868,0.175-1.763,0.331-2.689,0.464
		C39.633,41.089,40.496,42.279,41.462,43.41z"/>
	<path fill="#373636" d="M48.896,44.261c-0.009,0.003-0.017,0.005-0.026,0.007c-1.142,0.318-2.31,0.561-3.484,0.784
		c-0.417,0.079-0.835,0.155-1.253,0.23l-0.551-1.345c-0.448,0.112-0.904,0.219-1.372,0.32c0.465,0.511,0.944,1.015,1.428,1.524
		c1.604,1.682,3.247,3.411,4.39,5.52c2.447-2.56,4.345-5.643,5.524-9.061c-0.081,0.049-0.163,0.096-0.243,0.146
		C51.923,43.262,50.433,43.832,48.896,44.261z"/>
	<path fill="#373636" d="M38.599,38.847c0.929-0.143,1.828-0.311,2.694-0.501l-0.708-1.729c-0.055-0.172-0.078-0.283-0.124-0.384
		c-0.227-0.494-0.453-0.988-0.68-1.481h-2.016C37.828,36.297,38.131,37.639,38.599,38.847z"/>
	<path fill="#5E5F5F" d="M39.328,33.768c-0.136-0.294-0.27-0.589-0.406-0.884c-0.37,0.06-0.745,0.116-1.124,0.168
		c-0.414,0.057-0.831,0.109-1.255,0.156c-1.463,0.161-2.984,0.264-4.548,0.301c-0.434,0.01-0.871,0.017-1.312,0.017
		s-0.877-0.007-1.312-0.017c-2.017-0.048-3.961-0.205-5.802-0.457c-0.425-0.058-0.844-0.121-1.258-0.189
		c-0.381-0.063-0.756-0.129-1.127-0.2c-0.138,0.299-0.274,0.599-0.412,0.898c3.021,0.536,6.374,0.836,9.909,0.836
		C33.733,34.397,36.646,34.173,39.328,33.768z"/>
	<path fill="#5E5F5F" d="M22.492,39.747c2.185,0.31,4.519,0.5,6.948,0.548c0.412,0.008,0.826,0.012,1.243,0.012c0,0,0,0,0,0
		c2.441,0,4.796-0.143,7.015-0.407c0.433-0.052,0.861-0.108,1.283-0.168c0.925-0.133,1.821-0.29,2.689-0.464l-0.377-0.921
		c-0.866,0.19-1.765,0.358-2.694,0.501c-0.413,0.064-0.83,0.123-1.254,0.177c-2.106,0.268-4.343,0.412-6.662,0.412c0,0,0,0,0,0
		c-0.417,0-0.832-0.005-1.243-0.015c-2.31-0.052-4.528-0.246-6.602-0.563c-0.421-0.064-0.833-0.135-1.242-0.209
		c-0.971-0.176-1.906-0.379-2.799-0.607l-0.396,0.945c0.905,0.211,1.848,0.399,2.825,0.563
		C21.643,39.62,22.064,39.686,22.492,39.747z"/>
	<path fill="#5E5F5F" d="M43.19,42.979c-0.56,0.154-1.135,0.298-1.728,0.431c-0.45,0.101-0.913,0.193-1.38,0.282
		c-2.863,0.541-6.044,0.844-9.398,0.844c0,0,0,0,0,0c-0.417,0-0.832-0.005-1.243-0.015c-3.317-0.074-6.441-0.445-9.226-1.046
		c-0.457-0.099-0.907-0.202-1.345-0.313c-0.686-0.174-1.345-0.363-1.98-0.565l-0.415,0.99c0.534,0.154,1.085,0.299,1.652,0.435
		c0.451,0.108,0.913,0.211,1.383,0.307c2.992,0.616,6.356,0.994,9.93,1.065c0.412,0.008,0.826,0.012,1.243,0.012c0,0,0,0,0,0
		c3.614,0,7.039-0.314,10.111-0.872c0.48-0.087,0.953-0.18,1.416-0.279c0.468-0.1,0.924-0.208,1.372-0.32L43.19,42.979z"/>
	<path fill="#5E5F5F" d="M9.176,14.977c1.092-1.519,2.275-2.954,3.565-4.285C11.451,12.024,10.267,13.457,9.176,14.977z"/>
	<path fill="#5E5F5F" d="M59.751,35.594c-1.441-5.914-3.435-11.615-6.504-16.901c-1.561-2.69-3.357-5.173-5.429-7.409
		c1.403,1.518,2.68,3.148,3.84,4.881c-0.719,0.072-1.452,0.136-2.065,0.174c-0.181,0.011-0.356,0.02-0.511,0.026
		c0,0-0.139-0.172-0.385-0.455c-1.161-1.338-4.942-5.391-10.193-8.11c-0.243-0.126-0.484-0.256-0.734-0.376l0,0.001
		c0.25,0.12,0.49,0.249,0.735,0.376c-0.059,0.034-0.124,0.059-0.196,0.068c-8.922,1.139-13.436,4.047-13.481,4.076
		c-0.087,0.057-0.184,0.084-0.28,0.084c-0.009,0-0.017-0.006-0.026-0.007c0.058-0.2,0.114-0.397,0.174-0.6
		c0,0-0.164-0.112-0.47-0.291c0.016-0.013,0.025-0.03,0.042-0.041c0.188-0.123,4.674-3.004,13.642-4.196
		c0-0.001,0-0.002,0.001-0.003c0.136-0.523,0.36-1.409,0.625-2.566c-2.588-1.172-5.318-1.841-8.125-1.977
		C26.029,2.466,22.187,3.6,18.687,5.816c-1.245,0.788-2.409,1.653-3.508,2.582c-0.001,0.011-0.001,0.022-0.002,0.032
		c-0.01-0.001-0.02-0.002-0.029-0.003c0,0,0,0-0.001,0.001c0.01,0.001,0.02,0.002,0.03,0.003c4.881,0.536,7.947,2.06,9.049,2.7
		c0.306,0.177,0.47,0.291,0.47,0.291c-0.06,0.203-0.116,0.4-0.174,0.6c-1.192,4.108-1.914,7.57-2.285,9.579
		c-0.423-0.088-0.847-0.173-1.27-0.261c-0.679-0.141-1.348-0.292-1.909-0.416c0.561,0.125,1.231,0.275,1.909,0.417
		c1.948,0.406,3.897,0.809,5.848,1.199c0.328,0.066,0.521,0.175,0.431,0.55c-0.031,0.127-0.014,0.264-0.027,0.396
		c-0.101,1.011-0.184,1.108-1.191,1.331c-2.006,0.446-4.014,0.891-6.023,1.332c-0.743,0.163-0.846,0.116-1.23-0.552
		c-0.661-1.151-1.309-2.31-1.981-3.455c-0.154-0.262-0.148-0.434,0.083-0.638c0.185-0.164,0.384-0.298,0.602-0.41
		c-0.218,0.111-0.417,0.246-0.603,0.41c-0.231,0.204-0.237,0.376-0.084,0.638c0.496,0.846,0.978,1.7,1.463,2.552
		c-3.862,1.349-6.391,2.454-7.431,2.93c-0.355,0.163-0.546,0.257-0.546,0.257c-0.078-0.114-0.149-0.224-0.222-0.334
		c0.073,0.111,0.144,0.221,0.222,0.335c0,0,0.191-0.094,0.546-0.257c0.014,0.08,0.016,0.163-0.01,0.246
		c-0.021,0.065-2.099,6.594-1.658,13.236c0.012,0.181-0.078,0.339-0.214,0.44c0.671,0.927,1.422,1.827,2.213,2.681
		c1.543,0.342,3.091,0.666,4.643,0.971l0.676-1.614l0.415-0.99l1.512-3.61l0.396-0.945l0.613-1.464
		c0.121-0.281,0.227-0.536,0.342-0.788c0.159-0.346,0.317-0.693,0.476-1.039c0.182-0.397,0.364-0.794,0.546-1.191
		c0.138-0.299,0.274-0.599,0.412-0.898c0.271-0.588,0.54-1.177,0.81-1.766c0.258-0.562,0.517-1.124,0.773-1.687
		c0.135-0.296,0.272-0.59,0.406-0.886c0.196-0.433,0.523-0.611,0.955-0.694c1.156-0.226,2.307-0.471,3.465-0.687
		c0.508-0.094,0.925-0.301,1.291-0.68c0.188-0.194,0.373-0.34,0.555-0.439c0.419-0.227,0.827-0.195,1.243,0.078
		c0.141,0.093,0.283,0.206,0.427,0.356c0.363,0.38,0.781,0.587,1.289,0.682c1.157,0.216,2.308,0.462,3.464,0.687
		c0.431,0.084,0.764,0.259,0.96,0.69c0.158,0.347,0.319,0.694,0.478,1.041c0.262,0.573,0.526,1.145,0.789,1.717
		c0.277,0.603,0.554,1.206,0.831,1.809c0.136,0.294,0.27,0.589,0.406,0.884c0.151,0.328,0.301,0.656,0.452,0.984
		c0.227,0.494,0.454,0.988,0.68,1.481c0.047,0.101,0.069,0.212,0.124,0.384l0.708,1.729l0.377,0.921l1.52,3.712l0.392,0.958
		l0.551,1.345c0.417-0.075,0.836-0.151,1.253-0.23c1.174-0.222,2.341-0.466,3.484-0.784c-1.142,0.319-2.31,0.559-3.484,0.782
		c-0.417,0.08-0.835,0.156-1.253,0.23l-3.548-8.664c-0.055-0.172-0.078-0.283-0.124-0.385c-0.587-1.278-1.173-2.556-1.761-3.834
		c3.89-1.092,7.085-2.221,8.326-2.674c1.869-8.908,1.544-13.387,1.541-13.432c-0.011-0.146,0.042-0.28,0.132-0.38
		c0.246,0.283,0.385,0.455,0.385,0.455c0.157-0.006,0.33-0.016,0.511-0.026c0.045,0.783,0.19,5.222-1.569,13.603
		c-0.006,0.029-0.021,0.053-0.032,0.079c0,0,0,0.001,0.001,0.001c3.76,4.732,4.879,8.89,5.163,10.293
		c0.38,0.009,1.913-0.007,4.253-0.707c-0.277,0.256-0.565,0.502-0.865,0.735c1.167-0.887,2.155-1.955,2.935-3.231
		C59.769,36.64,59.886,36.146,59.751,35.594z M25.656,27.324c-0.893-0.764-1.648-1.406-2.26-1.923
		c0.419-0.093,0.837-0.185,1.256-0.278c0.643,0.545,1.405,1.195,2.283,1.949C26.509,27.155,26.083,27.237,25.656,27.324z
		 M32.897,22.725c0.164-0.143,0.475-0.217,1.035-0.337c2.363-0.507,4.728-1.009,7.093-1.511c0.161-0.034,0.329-0.033,0.642-0.063
		c0.185,0.053,0.519,0.1,0.812,0.237c0.901,0.426,0.97,0.67,0.486,1.525c-0.58,1.024-1.164,2.046-1.75,3.066
		c-0.347,0.604-0.474,0.666-1.163,0.52c-1.393-0.298-2.784-0.605-4.174-0.913c-0.776-0.172-1.548-0.364-2.328-0.521
		c-0.381-0.076-0.565-0.299-0.653-0.626c-0.01-0.039-0.025-0.073-0.033-0.115C32.727,23.235,32.677,22.917,32.897,22.725z"/>
	<path fill="#5E5F5F" d="M13.091,10.338c0.656-0.658,1.332-1.297,2.044-1.901C14.423,9.041,13.747,9.68,13.091,10.338z"/>
	<path fill="#5E5F5F" d="M7.282,17.82c0.478-0.784,0.983-1.543,1.502-2.29C8.265,16.277,7.76,17.036,7.282,17.82z"/>
	<path fill="#5E5F5F" d="M45.352,8.865c0.212,0.188,0.421,0.379,0.628,0.572C45.773,9.244,45.564,9.053,45.352,8.865z"/>
	<path fill="#5E5F5F" d="M40.621,5.398c0.587,0.337,1.166,0.699,1.733,1.095C41.787,6.097,41.207,5.738,40.621,5.398z"/>
	<path fill="#5E5F5F" d="M46.666,10.095c0.239,0.235,0.478,0.471,0.709,0.712C47.144,10.566,46.906,10.33,46.666,10.095z"/>
	<path fill="#5E5F5F" d="M55.37,41.148c-0.971,0.164-1.676,0.196-2.06,0.196c-0.153,0-0.239-0.004-0.287-0.007
		c0.074-0.172,0.154-0.339,0.222-0.513c-0.068,0.173-0.149,0.341-0.223,0.511c-0.243,0.565-0.507,1.121-0.801,1.66
		c-1.067,0.544-2.183,0.945-3.325,1.265c1.537-0.43,3.027-1,4.415-1.876c0.08-0.05,0.162-0.097,0.243-0.146
		c0.669-0.411,1.354-0.798,2.02-1.213c0.072-0.044,0.134-0.098,0.205-0.144c-0.07,0.046-0.133,0.099-0.205,0.143
		C55.506,41.068,55.437,41.107,55.37,41.148z"/>
	<path fill="#5E5F5F" d="M43.929,7.668c0.17,0.134,0.333,0.274,0.499,0.411C44.262,7.943,44.099,7.802,43.929,7.668z"/>
	<path fill="#5E5F5F" d="M38.567,4.339c0.593,0.27,1.178,0.571,1.756,0.893C39.746,4.908,39.161,4.609,38.567,4.339z"/>
	<path fill="#5E5F5F" d="M9.441,43.753c-0.296-0.11-0.588-0.23-0.874-0.363C8.853,43.523,9.145,43.643,9.441,43.753z"/>
	<path fill="#5E5F5F" d="M9.653,43.83c0.329,0.115,0.663,0.219,1.009,0.297c0.058,0.013,0.116,0.023,0.174,0.036
		c-0.058-0.012-0.116-0.024-0.174-0.038C10.317,44.047,9.982,43.944,9.653,43.83z"/>
	<path fill="#5E5F5F" d="M8.495,43.358c-0.334-0.157-0.662-0.326-0.987-0.505C7.833,43.032,8.161,43.202,8.495,43.358z"/>
	<path fill="#5E5F5F" d="M6.516,42.283c0.776-0.356,1.347-0.668,1.701-0.875c0.282-0.164,0.43-0.265,0.43-0.265
		c0.095,0.136,0.199,0.27,0.297,0.405c-0.098-0.136-0.202-0.269-0.296-0.406c0,0-0.149,0.1-0.43,0.265
		c-0.042-0.069-0.075-0.145-0.081-0.231c-0.455-6.844,1.617-13.346,1.706-13.619C9.864,27.49,9.9,27.43,9.945,27.379
		c0,0,0-0.001,0-0.001c-2.21-3.323-3.321-5.899-3.861-7.479c-2.453,4.501-4.164,9.297-5.451,14.26
		c0.146,1.406,0.393,2.781,0.726,4.123c-0.282-0.353-0.553-0.718-0.801-1.111c-0.08-0.127-0.146-0.256-0.199-0.386
		c0.053,0.13,0.119,0.259,0.2,0.387c1.101,1.754,2.574,3.106,4.353,4.15c0.566,0.332,1.127,0.678,1.693,1.013
		c0.294,0.174,0.59,0.345,0.889,0.509C7.164,42.665,6.839,42.476,6.516,42.283z"/>
	<path fill="#5E5F5F" d="M18.704,20.846c-0.027-0.001-0.048,0.004-0.074,0.004C18.656,20.85,18.676,20.844,18.704,20.846
		C18.704,20.846,18.704,20.846,18.704,20.846z"/>
	<path fill="#373636" d="M15.179,8.398C15.179,8.398,15.179,8.398,15.179,8.398c-0.011,0.009-0.022,0.019-0.033,0.028
		c0,0,0.001,0,0.001,0c0.01,0.001,0.02,0.002,0.029,0.003C15.178,8.421,15.178,8.409,15.179,8.398z"/>
	<path fill="#373636" d="M37.911,6.894c-8.968,1.192-13.454,4.073-13.642,4.196c-0.017,0.011-0.026,0.028-0.042,0.041
		c0.306,0.178,0.47,0.291,0.47,0.291c-0.06,0.203-0.116,0.4-0.174,0.6c0.009,0.001,0.017,0.007,0.026,0.007
		c0.096,0,0.193-0.027,0.28-0.084c0.045-0.029,4.56-2.936,13.481-4.076c0.071-0.009,0.137-0.033,0.196-0.068
		c-0.245-0.127-0.485-0.256-0.735-0.376l0-0.001c0,0-0.001,0-0.001,0C37.771,7.425,37.823,7.235,37.911,6.894z"/>
	<path fill="#373636" d="M47.591,29.516c0.141,0.171,0.267,0.339,0.402,0.508c0.011-0.026,0.026-0.051,0.032-0.079
		c1.759-8.381,1.614-12.819,1.569-13.603c-0.181,0.011-0.355,0.02-0.511,0.026c0,0-0.139-0.172-0.385-0.455
		c-0.09,0.1-0.143,0.234-0.132,0.38c0.004,0.045,0.328,4.523-1.541,13.432c0,0,0.001,0,0.001,0
		C47.384,29.594,47.591,29.516,47.591,29.516z"/>
	<path fill="#373636" d="M24.652,25.123c-0.419,0.092-0.837,0.185-1.256,0.278c0.612,0.517,1.367,1.159,2.26,1.923
		c0.426-0.086,0.852-0.169,1.279-0.252C26.058,26.318,25.295,25.668,24.652,25.123z"/>
	<path fill="#373636" d="M9.842,27.558c-0.089,0.273-2.16,6.775-1.706,13.619c0.006,0.086,0.038,0.161,0.081,0.231
		c0.281-0.165,0.43-0.265,0.43-0.265c0.094,0.137,0.198,0.27,0.296,0.406c0.136-0.1,0.226-0.258,0.214-0.44
		c-0.441-6.643,1.637-13.171,1.658-13.236c0.026-0.083,0.025-0.166,0.01-0.246c-0.355,0.163-0.546,0.257-0.546,0.257
		c-0.078-0.114-0.149-0.224-0.222-0.335c-0.037-0.056-0.075-0.113-0.113-0.17C9.9,27.43,9.864,27.49,9.842,27.558z"/>
	<path fill="#373636" d="M53.157,40.318c0.066,0.327,0.089,0.507,0.089,0.507c-0.068,0.173-0.149,0.341-0.222,0.513
		c0.048,0.003,0.134,0.007,0.287,0.007c0.383,0,1.089-0.032,2.06-0.196c0.068-0.041,0.137-0.08,0.205-0.123
		c0.071-0.044,0.135-0.097,0.205-0.143c0.262-0.172,0.522-0.346,0.766-0.537c0.3-0.234,0.588-0.479,0.865-0.735
		C55.07,40.31,53.536,40.326,53.157,40.318z"/>
	<path fill="#373636" d="M37.911,6.894c-0.089,0.341-0.141,0.531-0.141,0.531c0,0,0.001,0,0.001,0c0.25,0.12,0.491,0.25,0.734,0.376
		c5.251,2.719,9.031,6.772,10.193,8.11c0.246,0.283,0.385,0.455,0.385,0.455c0.155-0.006,0.33-0.015,0.511-0.026
		c0.612-0.038,1.345-0.102,2.065-0.174c-1.16-1.733-2.437-3.364-3.84-4.881c-0.147-0.159-0.293-0.32-0.443-0.477
		c-0.232-0.242-0.471-0.477-0.709-0.712c-0.226-0.222-0.454-0.442-0.686-0.658c-0.207-0.193-0.416-0.384-0.628-0.572
		c-0.302-0.267-0.611-0.528-0.924-0.785c-0.166-0.137-0.33-0.277-0.499-0.411c-0.498-0.394-1.006-0.78-1.532-1.148
		c-0.014-0.01-0.028-0.017-0.042-0.026c-0.567-0.396-1.147-0.758-1.733-1.095c-0.099-0.057-0.198-0.111-0.298-0.167
		c-0.578-0.321-1.163-0.623-1.756-0.893c-0.01-0.005-0.02-0.011-0.03-0.015c0,0,0,0.001,0,0.001
		c-0.266,1.158-0.49,2.044-0.625,2.566C37.912,6.892,37.911,6.893,37.911,6.894z"/>
	<path fill="#373636" d="M9.944,27.378C9.945,27.378,9.945,27.379,9.944,27.378c0.038,0.058,0.076,0.114,0.113,0.17
		c0.073,0.111,0.144,0.221,0.222,0.334c0,0,0.191-0.093,0.546-0.257c1.04-0.477,3.57-1.582,7.431-2.93
		c-0.485-0.852-0.968-1.706-1.463-2.552c-0.154-0.262-0.148-0.434,0.084-0.638c0.185-0.164,0.385-0.298,0.603-0.41
		c0.311-0.159,0.675-0.254,1.149-0.246c0.027,0,0.047-0.005,0.074-0.004c0,0,0,0,0,0c0.109,0.024,0.232,0.051,0.354,0.078
		c0.561,0.125,1.23,0.275,1.909,0.416c0.423,0.088,0.847,0.173,1.27,0.261c0.371-2.009,1.093-5.471,2.285-9.579
		c0.058-0.2,0.114-0.397,0.174-0.6c0,0-0.164-0.114-0.47-0.291c-1.102-0.641-4.168-2.164-9.049-2.7
		c-0.01-0.001-0.02-0.002-0.03-0.003c0,0,0,0,0,0c-0.004,0.003-0.007,0.007-0.011,0.01c-0.712,0.604-1.388,1.243-2.044,1.901
		c-0.117,0.118-0.235,0.235-0.35,0.354c-1.29,1.331-2.473,2.766-3.565,4.285c-0.132,0.183-0.263,0.367-0.392,0.553
		c-0.519,0.746-1.024,1.506-1.502,2.29c-0.005,0.008-0.011,0.016-0.016,0.024c-0.413,0.677-0.806,1.362-1.183,2.054c0,0,0,0,0,0
		C6.623,21.479,7.735,24.055,9.944,27.378z"/>
	<path fill="#373636" d="M52.221,42.996c0.294-0.539,0.559-1.096,0.801-1.66c0.074-0.17,0.155-0.339,0.223-0.511
		c0,0-0.022-0.181-0.089-0.507c-0.284-1.403-1.402-5.561-5.163-10.293c0,0,0-0.001-0.001-0.001c-0.135-0.17-0.26-0.337-0.402-0.508
		c0,0-0.207,0.078-0.565,0.209c0,0-0.001,0-0.001,0c-1.24,0.453-4.436,1.582-8.326,2.674c0.588,1.277,1.174,2.555,1.761,3.834
		c0.047,0.101,0.069,0.212,0.124,0.385l3.548,8.664c0.418-0.075,0.836-0.151,1.253-0.23c1.174-0.222,2.343-0.462,3.484-0.782
		c0.009-0.002,0.017-0.005,0.026-0.007C50.038,43.941,51.154,43.54,52.221,42.996z"/>
	<path fill="#373636" d="M8.217,41.408c-0.353,0.207-0.925,0.518-1.701,0.875c0.323,0.193,0.649,0.381,0.978,0.562
		c0.005,0.003,0.01,0.006,0.015,0.008c0.325,0.178,0.653,0.348,0.987,0.505c0.024,0.011,0.048,0.021,0.071,0.032
		c0.286,0.133,0.578,0.253,0.874,0.363c0.07,0.026,0.141,0.052,0.212,0.077c0.329,0.115,0.664,0.218,1.009,0.295
		c0.058,0.013,0.116,0.025,0.174,0.038c0.108,0.023,0.216,0.046,0.323,0.07c-0.001-0.001-0.002-0.002-0.003-0.003
		c-0.79-0.854-1.541-1.754-2.213-2.681c-0.098-0.136-0.202-0.269-0.297-0.405C8.647,41.143,8.498,41.244,8.217,41.408z"/>
	<path fill="#373636" d="M1.358,38.282c-0.333-1.342-0.58-2.717-0.726-4.123c0,0,0-0.001,0-0.001
		c-0.121,0.465-0.245,0.929-0.359,1.397c-0.105,0.434-0.073,0.839,0.086,1.231c0.053,0.13,0.119,0.259,0.199,0.386
		C0.805,37.564,1.076,37.929,1.358,38.282z"/>
</g>
</svg>
